<svg xmlns="http://www.w3.org/2000/svg" xmlns:xlink="http://www.w3.org/1999/xlink" width="1920" zoomAndPan="magnify" viewBox="0 0 1440 809.999993" height="1080" preserveAspectRatio="xMidYMid meet" version="1.0"><defs><g/></defs><g fill="#ffffff" fill-opacity="1"><g transform="translate(215.233134, 667.687892)"><g><path d="M 266.640625 -405.75 C 227.992188 -405.75 198.070312 -391.226562 176.875 -362.1875 C 155.675781 -333.15625 145.078125 -292.691406 145.078125 -240.796875 C 145.078125 -132.816406 185.597656 -78.828125 266.640625 -78.828125 C 300.640625 -78.828125 341.820312 -87.328125 390.1875 -104.328125 L 390.1875 -18.21875 C 350.4375 -1.65625 306.050781 6.625 257.03125 6.625 C 186.59375 6.625 132.710938 -14.738281 95.390625 -57.46875 C 58.078125 -100.195312 39.421875 -161.53125 39.421875 -241.46875 C 39.421875 -291.8125 48.582031 -335.914062 66.90625 -373.78125 C 85.226562 -411.65625 111.554688 -440.691406 145.890625 -460.890625 C 180.234375 -481.097656 220.484375 -491.203125 266.640625 -491.203125 C 313.671875 -491.203125 360.921875 -479.832031 408.390625 -457.09375 L 375.28125 -373.625 C 357.164062 -382.226562 338.941406 -389.734375 320.609375 -396.140625 C 302.285156 -402.546875 284.296875 -405.75 266.640625 -405.75 Z M 266.640625 -405.75 "/></g></g></g><g fill="#7ed957" fill-opacity="1"><g transform="translate(647.458377, 667.687892)"><g><path d="M 60.9375 0 L 60.9375 -484.25 L 163.625 -484.25 L 163.625 -84.796875 L 360.03125 -84.796875 L 360.03125 0 Z M 60.9375 0 "/></g></g></g><g fill="#7ed957" fill-opacity="1"><g transform="translate(1030.67073, 667.687892)"><g><path d="M 137.78125 -160.640625 L 56.96875 -160.640625 L 40.078125 -484.25 L 154.6875 -484.25 Z M 38.75 -47.359375 C 38.75 -65.910156 43.71875 -79.929688 53.65625 -89.421875 C 63.59375 -98.921875 78.054688 -103.671875 97.046875 -103.671875 C 115.378906 -103.671875 129.566406 -98.8125 139.609375 -89.09375 C 149.660156 -79.382812 154.6875 -65.472656 154.6875 -47.359375 C 154.6875 -29.921875 149.601562 -16.175781 139.4375 -6.125 C 129.28125 3.914062 115.148438 8.9375 97.046875 8.9375 C 78.492188 8.9375 64.140625 4.023438 53.984375 -5.796875 C 43.828125 -15.617188 38.75 -29.472656 38.75 -47.359375 Z M 38.75 -47.359375 "/></g></g></g></svg>